<?xml version="1.0" standalone="no"?>
<svg id="divesh" width="196" height="89" viewBox="0 0 196 89" fill="none" xmlns="http://www.w3.org/2000/svg" style="max-width: 100%; max-height: 100%;">
<path d="M30.476 26.59C33.288 26.59 35.7453 27.1347 37.848 28.224C39.976 29.288 41.61 30.8333 42.75 32.86C43.9153 34.8613 44.498 37.2047 44.498 39.89C44.498 42.5753 43.9153 44.906 42.75 46.882C41.61 48.858 39.976 50.378 37.848 51.442C35.7453 52.4807 33.288 53 30.476 53H21.85V26.59H30.476ZM30.476 49.466C33.5667 49.466 35.9353 48.63 37.582 46.958C39.2287 45.286 40.052 42.93 40.052 39.89C40.052 36.8247 39.2287 34.4307 37.582 32.708C35.9353 30.9853 33.5667 30.124 30.476 30.124H26.182V49.466H30.476ZM50.9954 29.288C50.2101 29.288 49.5514 29.022 49.0194 28.49C48.4874 27.958 48.2214 27.2993 48.2214 26.514C48.2214 25.7287 48.4874 25.07 49.0194 24.538C49.5514 24.006 50.2101 23.74 50.9954 23.74C51.7554 23.74 52.4014 24.006 52.9334 24.538C53.4654 25.07 53.7314 25.7287 53.7314 26.514C53.7314 27.2993 53.4654 27.958 52.9334 28.49C52.4014 29.022 51.7554 29.288 50.9954 29.288ZM53.1234 32.062V53H48.7914V32.062H53.1234ZM66.9049 49.124L72.8329 32.062H77.4309L69.4509 53H64.2829L56.3409 32.062H60.9769L66.9049 49.124ZM99.8955 42.018C99.8955 42.8033 99.8448 43.5127 99.7435 44.146H83.7455C83.8721 45.818 84.4928 47.1607 85.6075 48.174C86.7221 49.1873 88.0901 49.694 89.7115 49.694C92.0421 49.694 93.6888 48.7187 94.6515 46.768H99.3255C98.6921 48.6933 97.5395 50.2767 95.8675 51.518C94.2208 52.734 92.1688 53.342 89.7115 53.342C87.7101 53.342 85.9115 52.8987 84.3155 52.012C82.7448 51.1 81.5035 49.8333 80.5915 48.212C79.7048 46.5653 79.2615 44.6653 79.2615 42.512C79.2615 40.3587 79.6921 38.4713 80.5535 36.85C81.4401 35.2033 82.6688 33.9367 84.2395 33.05C85.8355 32.1633 87.6595 31.72 89.7115 31.72C91.6875 31.72 93.4481 32.1507 94.9935 33.012C96.5388 33.8733 97.7421 35.0893 98.6035 36.66C99.4648 38.2053 99.8955 39.9913 99.8955 42.018ZM95.3735 40.65C95.3481 39.054 94.7781 37.7747 93.6635 36.812C92.5488 35.8493 91.1681 35.368 89.5215 35.368C88.0268 35.368 86.7475 35.8493 85.6835 36.812C84.6195 37.7493 83.9861 39.0287 83.7835 40.65H95.3735ZM111.759 53.342C110.112 53.342 108.63 53.0507 107.313 52.468C106.021 51.86 104.995 51.0493 104.235 50.036C103.475 48.9973 103.069 47.8447 103.019 46.578H107.503C107.579 47.4647 107.997 48.212 108.757 48.82C109.542 49.4027 110.517 49.694 111.683 49.694C112.899 49.694 113.836 49.466 114.495 49.01C115.179 48.5287 115.521 47.9207 115.521 47.186C115.521 46.4007 115.141 45.818 114.381 45.438C113.646 45.058 112.468 44.64 110.847 44.184C109.276 43.7533 107.997 43.3353 107.009 42.93C106.021 42.5247 105.159 41.904 104.425 41.068C103.715 40.232 103.361 39.13 103.361 37.762C103.361 36.6473 103.69 35.634 104.349 34.722C105.007 33.7847 105.945 33.05 107.161 32.518C108.402 31.986 109.821 31.72 111.417 31.72C113.798 31.72 115.711 32.328 117.155 33.544C118.624 34.7347 119.409 36.3687 119.511 38.446H115.179C115.103 37.5087 114.723 36.7613 114.039 36.204C113.355 35.6467 112.43 35.368 111.265 35.368C110.125 35.368 109.251 35.5833 108.643 36.014C108.035 36.4447 107.731 37.0147 107.731 37.724C107.731 38.2813 107.933 38.75 108.339 39.13C108.744 39.51 109.238 39.814 109.821 40.042C110.403 40.2447 111.265 40.5107 112.405 40.84C113.925 41.2453 115.166 41.6633 116.129 42.094C117.117 42.4993 117.965 43.1073 118.675 43.918C119.384 44.7287 119.751 45.8053 119.777 47.148C119.777 48.3387 119.447 49.4027 118.789 50.34C118.13 51.2773 117.193 52.012 115.977 52.544C114.786 53.076 113.38 53.342 111.759 53.342ZM135.287 31.72C136.883 31.72 138.302 32.062 139.543 32.746C140.81 33.43 141.798 34.4433 142.507 35.786C143.242 37.1287 143.609 38.75 143.609 40.65V53H139.315V41.296C139.315 39.4213 138.847 37.99 137.909 37.002C136.972 35.9887 135.693 35.482 134.071 35.482C132.45 35.482 131.158 35.9887 130.195 37.002C129.258 37.99 128.789 39.4213 128.789 41.296V53H124.457V24.88H128.789V34.494C129.524 33.6073 130.449 32.9233 131.563 32.442C132.703 31.9607 133.945 31.72 135.287 31.72Z" fill="#430F44" fill-opacity="0.7" stroke-dasharray="0,0,0,674.2555541992188"><animate attributeType="XML" attributeName="stroke-dasharray" repeatCount="100" dur="4s" values="0,0,0,674.2555541992188; 
          0,337.1277770996094,337.1277770996094,0; 
          674.2555541992188,0,0,0" keyTimes="0; 0.5; 1" fill="freeze"></animate></path>
<path d="M194.183 46.9476C194.183 46.9476 184.255 17.7448 150.518 10.4065C138.062 6.74159 104.101 0.135548 67.9047 3.03039C60.5541 4.21395 9.07855 5.13929 2.1068 39.1172C-0.228773 50.5 5.28384 61.5741 42.3872 78.7671C48.6147 80.4274 76.3657 91.321 126.694 84.847C136.304 82.7531 180.115 70.8753 176.074 44.5474C176.063 40.674 168.936 21.5857 126.483 12.93C120.258 11.9153 88.5547 3.74465 57.4689 13.132" stroke="#430F44" stroke-width="3" stroke-linecap="round" stroke-dasharray="0,0,0,570.2265625"><animate attributeType="XML" attributeName="stroke-dasharray" repeatCount="100" dur="4s" values="0,0,0,570.2265625; 
          0,285.11328125,285.11328125,0; 
          570.2265625,0,0,0" keyTimes="0; 0.5; 1" fill="freeze"></animate></path>
<setting>{"type":"direct","speed":1,"random":1,"shift":1,"size":1,"rupture":50}</setting></svg>