<?xml version="1.0" standalone="no"?>
<svg id="myjourney" width="347" height="140" viewBox="0 0 347 140" fill="none" xmlns="http://www.w3.org/2000/svg" style="max-width: 100%; max-height: 100%;">
<path d="M343.329 62.6956C343.329 62.6956 323.351 23.0413 263.267 16.5032C241.002 12.7561 180.584 7.26428 117.034 15.273C104.179 17.7304 13.5308 24.6671 4.12714 72.837C0.976885 88.9742 11.633 103.82 78.4876 123.738C89.6046 125.371 139.441 137.526 227.595 122.974C244.356 118.998 320.565 97.6218 311.208 61.333C310.859 55.9301 296.677 30.0801 221.119 22.66C210.06 21.9271 153.49 14.0047 99.4979 30.511" stroke="#430F44" stroke-width="3" stroke-linecap="round" stroke-dasharray="0,0,0,961.8160400390625"><animate attributeType="XML" attributeName="stroke-dasharray" repeatCount="10000" dur="3s" values="0,0,0,961.8160400390625; 
          0,480.90802001953125,480.90802001953125,0; 
          961.8160400390625,0,0,0" keyTimes="0; 0.5; 1" fill="freeze"></animate></path>
<path d="M58.35 60.59V92H52.05V71.57L43.635 92H38.865L30.405 71.57V92H24.105V60.59H31.26L41.25 83.945L51.24 60.59H58.35ZM88.4286 67.07L72.9936 103.79H66.2886L71.6886 91.37L61.6986 67.07H68.7636L75.1986 84.485L81.7236 67.07H88.4286ZM120.862 60.59V82.64C120.862 85.7 119.977 88.085 118.207 89.795C116.437 91.475 114.067 92.315 111.097 92.315C108.097 92.315 105.667 91.445 103.807 89.705C101.977 87.965 101.062 85.535 101.062 82.415H107.362C107.392 83.765 107.707 84.815 108.307 85.565C108.937 86.315 109.837 86.69 111.007 86.69C112.147 86.69 113.017 86.33 113.617 85.61C114.217 84.89 114.517 83.9 114.517 82.64V60.59H120.862ZM139.281 92.405C136.881 92.405 134.721 91.88 132.801 90.83C130.881 89.75 129.366 88.235 128.256 86.285C127.176 84.335 126.636 82.085 126.636 79.535C126.636 76.985 127.191 74.735 128.301 72.785C129.441 70.835 130.986 69.335 132.936 68.285C134.886 67.205 137.061 66.665 139.461 66.665C141.861 66.665 144.036 67.205 145.986 68.285C147.936 69.335 149.466 70.835 150.576 72.785C151.716 74.735 152.286 76.985 152.286 79.535C152.286 82.085 151.701 84.335 150.531 86.285C149.391 88.235 147.831 89.75 145.851 90.83C143.901 91.88 141.711 92.405 139.281 92.405ZM139.281 86.915C140.421 86.915 141.486 86.645 142.476 86.105C143.496 85.535 144.306 84.695 144.906 83.585C145.506 82.475 145.806 81.125 145.806 79.535C145.806 77.165 145.176 75.35 143.916 74.09C142.686 72.8 141.171 72.155 139.371 72.155C137.571 72.155 136.056 72.8 134.826 74.09C133.626 75.35 133.026 77.165 133.026 79.535C133.026 81.905 133.611 83.735 134.781 85.025C135.981 86.285 137.481 86.915 139.281 86.915ZM180.443 67.07V92H174.098V88.85C173.288 89.93 172.223 90.785 170.903 91.415C169.613 92.015 168.203 92.315 166.673 92.315C164.723 92.315 162.998 91.91 161.498 91.1C159.998 90.26 158.813 89.045 157.943 87.455C157.103 85.835 156.683 83.915 156.683 81.695V67.07H162.983V80.795C162.983 82.775 163.478 84.305 164.468 85.385C165.458 86.435 166.808 86.96 168.518 86.96C170.258 86.96 171.623 86.435 172.613 85.385C173.603 84.305 174.098 82.775 174.098 80.795V67.07H180.443ZM192.959 70.94C193.769 69.62 194.819 68.585 196.109 67.835C197.429 67.085 198.929 66.71 200.609 66.71V73.325H198.944C196.964 73.325 195.464 73.79 194.444 74.72C193.454 75.65 192.959 77.27 192.959 79.58V92H186.659V67.07H192.959V70.94ZM218.667 66.71C221.637 66.71 224.037 67.655 225.867 69.545C227.697 71.405 228.612 74.015 228.612 77.375V92H222.312V78.23C222.312 76.25 221.817 74.735 220.827 73.685C219.837 72.605 218.487 72.065 216.777 72.065C215.037 72.065 213.657 72.605 212.637 73.685C211.647 74.735 211.152 76.25 211.152 78.23V92H204.852V67.07H211.152V70.175C211.992 69.095 213.057 68.255 214.347 67.655C215.667 67.025 217.107 66.71 218.667 66.71ZM257.778 78.995C257.778 79.895 257.718 80.705 257.598 81.425H239.373C239.523 83.225 240.153 84.635 241.263 85.655C242.373 86.675 243.738 87.185 245.358 87.185C247.698 87.185 249.363 86.18 250.353 84.17H257.148C256.428 86.57 255.048 88.55 253.008 90.11C250.968 91.64 248.463 92.405 245.493 92.405C243.093 92.405 240.933 91.88 239.013 90.83C237.123 89.75 235.638 88.235 234.558 86.285C233.508 84.335 232.983 82.085 232.983 79.535C232.983 76.955 233.508 74.69 234.558 72.74C235.608 70.79 237.078 69.29 238.968 68.24C240.858 67.19 243.033 66.665 245.493 66.665C247.863 66.665 249.978 67.175 251.838 68.195C253.728 69.215 255.183 70.67 256.203 72.56C257.253 74.42 257.778 76.565 257.778 78.995ZM251.253 77.195C251.223 75.575 250.638 74.285 249.498 73.325C248.358 72.335 246.963 71.84 245.313 71.84C243.753 71.84 242.433 72.32 241.353 73.28C240.303 74.21 239.658 75.515 239.418 77.195H251.253ZM286.226 67.07L270.791 103.79H264.086L269.486 91.37L259.496 67.07H266.561L272.996 84.485L279.521 67.07H286.226Z" fill="#430F44" stroke-dasharray="0,0,0,1226.202880859375"><animate attributeType="XML" attributeName="stroke-dasharray" repeatCount="10000" dur="3s" values="0,0,0,1226.202880859375; 
          0,613.1014404296875,613.1014404296875,0; 
          1226.202880859375,0,0,0" keyTimes="0; 0.5; 1" fill="freeze"></animate></path>
<setting>{"type":"direct","speed":98,"random":1,"shift":1,"size":1,"rupture":50}</setting></svg>